<?xml version="1.0" encoding="UTF-8"?>
<svg version="1.1" xmlns="http://www.w3.org/2000/svg" width="666" height="375">
<path d="M0 0 C1.31484375 -0.01836914 1.31484375 -0.01836914 2.65625 -0.03710938 C9.5758249 -0.05274094 14.75938195 0.88434441 20.375 5.1875 C21.06335938 5.703125 21.75171875 6.21875 22.4609375 6.75 C22.96882813 7.224375 23.47671875 7.69875 24 8.1875 C24 8.8475 24 9.5075 24 10.1875 C24.47308594 9.71699219 24.94617188 9.24648437 25.43359375 8.76171875 C26.09488281 8.13910156 26.75617188 7.51648438 27.4375 6.875 C28.07558594 6.26011719 28.71367187 5.64523438 29.37109375 5.01171875 C36.06830922 0.36446819 43.16948358 -0.27636066 51.125 -0.125 C52.40697266 -0.12983398 52.40697266 -0.12983398 53.71484375 -0.13476562 C62.68216707 -0.05900483 71.09754822 2.08148496 78 8.1875 C78 8.8475 78 9.5075 78 10.1875 C78.66 10.1875 79.32 10.1875 80 10.1875 C80.82275672 11.72371735 81.63272577 13.26678632 82.4375 14.8125 C82.88996094 15.67101562 83.34242188 16.52953125 83.80859375 17.4140625 C85.88626533 22.25060945 86.12766059 27.09774529 86.17700195 32.31298828 C86.19625481 34.09481003 86.19625481 34.09481003 86.21589661 35.91262817 C86.22328354 37.181539 86.23067047 38.45044983 86.23828125 39.7578125 C86.246353 41.07159882 86.25442474 42.38538513 86.26274109 43.73898315 C86.27770351 46.511046 86.28757549 49.2830838 86.29516602 52.05517578 C86.30627707 55.60398407 86.34075743 59.1521734 86.38033772 62.7007618 C86.41274666 66.09475424 86.41727409 69.48867727 86.42578125 72.8828125 C86.44328934 74.15577179 86.46079742 75.42873108 86.47883606 76.74026489 C86.47591049 77.92184174 86.47298492 79.10341858 86.4699707 80.32080078 C86.47583694 81.35971466 86.48170319 82.39862854 86.48774719 83.46902466 C85.87049387 86.90930678 84.74977223 88.08952778 82 90.1875 C78.765625 90.578125 78.765625 90.578125 75.25 90.4375 C74.07953125 90.40140625 72.9090625 90.3653125 71.703125 90.328125 C70.81109375 90.28171875 69.9190625 90.2353125 69 90.1875 C69 89.5275 69 88.8675 69 88.1875 C68.34 88.1875 67.68 88.1875 67 88.1875 C65.69476151 85.57702301 65.86107087 83.63896825 65.84228516 80.71557617 C65.83202301 79.57066208 65.82176086 78.42574799 65.81118774 77.24613953 C65.80388641 76.00346817 65.79658508 74.76079681 65.7890625 73.48046875 C65.760994 70.8665302 65.73232954 68.25259798 65.703125 65.63867188 C65.66068794 61.50418472 65.62392069 57.36973653 65.59863281 53.23510742 C65.57362951 49.25417969 65.52518269 45.27367965 65.4765625 41.29296875 C65.47330963 40.05637009 65.47005676 38.81977142 65.46670532 37.54570007 C65.45013885 36.3913295 65.43357239 35.23695892 65.41650391 34.04760742 C65.40841705 33.03437912 65.4003302 32.02115082 65.39199829 30.97721863 C64.93987082 27.75958105 63.75933135 25.88353989 62 23.1875 C62 22.5275 62 21.8675 62 21.1875 C54.92099224 19.69718258 46.46781291 18.79734893 39.69082642 21.88742065 C36.84380968 24.07649673 36.91229163 26.86637797 36.34002686 30.2666626 C35.74435189 35.38352233 35.72187739 40.47090683 35.7265625 45.6171875 C35.70629726 47.98177577 35.68544698 50.34635909 35.6640625 52.7109375 C35.64136727 56.40434001 35.62494492 60.09754627 35.61914062 63.79101562 C35.60965294 67.37925728 35.57595267 70.96663789 35.5390625 74.5546875 C35.54410797 75.66198212 35.54915344 76.76927673 35.55435181 77.91012573 C35.54108856 78.93864655 35.52782532 79.96716736 35.51416016 81.02685547 C35.51131012 81.92935028 35.50846008 82.83184509 35.50552368 83.76168823 C34.83709958 86.96919583 33.53382309 88.17380072 31 90.1875 C28.08984375 90.68359375 28.08984375 90.68359375 24.9375 90.625 C23.89464844 90.62371094 22.85179687 90.62242187 21.77734375 90.62109375 C18.59570404 90.12438207 17.89706208 89.71393886 16 87.1875 C15.61473083 84.80601501 15.61473083 84.80601501 15.59936523 81.95678711 C15.57935707 80.35383034 15.57935707 80.35383034 15.5589447 78.7184906 C15.55882889 77.56228714 15.55871307 76.40608368 15.55859375 75.21484375 C15.54538589 74.02202286 15.53217804 72.82920197 15.51856995 71.60023499 C15.47759224 67.77513354 15.45600047 63.95027148 15.4375 60.125 C15.41363877 56.32479779 15.38532972 52.52481876 15.34571838 48.7247467 C15.32156247 46.35962153 15.30654097 43.99437951 15.30210876 41.62913513 C15.23944407 34.9194903 14.60453811 28.70831398 13 22.1875 C5.74939431 20.03917239 -1.71744919 18.6667998 -9 21.4375 C-12.20903932 23.3094396 -12.76824351 23.8369336 -14 27.1875 C-14.29923624 29.94705372 -14.29923624 29.94705372 -14.25537109 32.99414062 C-14.26580948 34.74615784 -14.26580948 34.74615784 -14.27645874 36.53356934 C-14.27546173 37.79092896 -14.27446472 39.04828857 -14.2734375 40.34375 C-14.28853095 42.32131558 -14.30364724 44.29888131 -14.32012367 46.27643585 C-14.3579052 51.15022047 -14.37505726 56.02402998 -14.38085938 60.89794922 C-14.38490284 63.63506961 -14.39945253 66.3717629 -14.42520142 69.10876465 C-14.44868353 71.68622203 -14.45599123 74.26388707 -14.44564819 76.84143066 C-14.45891144 78.00944214 -14.47217468 79.17745361 -14.48583984 80.38085938 C-14.4901149 81.92163147 -14.4901149 81.92163147 -14.49447632 83.49353027 C-15.13346469 86.89874232 -16.29278339 88.08746532 -19 90.1875 C-21.875 90.6484375 -21.875 90.6484375 -25 90.5625 C-26.03125 90.54960937 -27.0625 90.53671875 -28.125 90.5234375 C-30.93634014 90.19493852 -32.64503994 89.72476559 -35 88.1875 C-36.29699652 85.59350696 -36.1341438 83.69977964 -36.14526367 80.79492188 C-36.15164352 79.66614624 -36.15802338 78.53737061 -36.16459656 77.37438965 C-36.16570938 76.14740356 -36.1668222 74.92041748 -36.16796875 73.65625 C-36.17129715 72.39542603 -36.17462555 71.13460205 -36.17805481 69.83557129 C-36.18312818 67.15889985 -36.18589452 64.48232982 -36.18530273 61.80566406 C-36.18520182 58.40101289 -36.1987777 54.99657361 -36.21607494 51.59197235 C-36.22998775 48.32173989 -36.22928741 45.05150799 -36.23046875 41.78125 C-36.23765427 40.57045776 -36.24483978 39.35966553 -36.25224304 38.11218262 C-36.22734212 28.77225852 -35.88806747 20.08471913 -30.5625 12.125 C-29.96566406 11.20589844 -29.36882812 10.28679687 -28.75390625 9.33984375 C-27 7.1875 -27 7.1875 -24 6.1875 C-23.54625 5.713125 -23.0925 5.23875 -22.625 4.75 C-16.86288242 -0.79049768 -7.43881126 0.00546971 0 0 Z " fill="#EFEFEF" transform="translate(153,90.8125)"/>
<path d="M0 0 C1.94523628 1.551531 2.88911463 2.43894461 3.37752342 4.91018486 C3.3786545 5.63534357 3.37978558 6.36050228 3.38095093 7.1076355 C3.3894104 7.94280197 3.39786987 8.77796844 3.40658569 9.63844299 C3.400513 10.55165817 3.39444031 11.46487335 3.38818359 12.40576172 C3.39344055 13.37042862 3.39869751 14.33509552 3.40411377 15.32899475 C3.41735212 18.52938891 3.40855509 21.72928793 3.3984375 24.9296875 C3.40045878 27.15870255 3.40337067 29.38771695 3.40713501 31.61672974 C3.41156492 36.29923774 3.40511189 40.98157439 3.39111328 45.6640625 C3.3741201 51.63666066 3.38379552 57.60885144 3.40183067 63.58143425 C3.41273527 68.19199622 3.40919 72.8024637 3.4014473 77.41302872 C3.39945852 79.61282526 3.40185759 81.81263063 3.40888596 84.01241684 C3.4638433 106.07255783 3.4638433 106.07255783 0 117 C-0.66 117 -1.32 117 -2 117 C-2.0825 117.53625 -2.165 118.0725 -2.25 118.625 C-4.12711878 124.56920946 -7.6276261 128.06961424 -13 131 C-25.22007505 137.00321869 -40.96265597 137.72495544 -54 134 C-64.69658379 129.48185011 -70.00771215 123.94210782 -74.5625 113.375 C-80.54893875 96.67598665 -79.60220072 75.8676808 -73.2109375 59.45703125 C-71.4117647 55.80645159 -69.13396251 52.62357433 -66 50 C-65.34 50 -64.68 50 -64 50 C-63.67 49.01 -63.34 48.02 -63 47 C-56.01691826 42.7776715 -48.97665819 42.81834934 -41.0625 42.8125 C-39.76022461 42.79413086 -39.76022461 42.79413086 -38.43164062 42.77539062 C-31.83733732 42.76043756 -25.75333402 43.45948676 -20 47 C-19.67 47.66 -19.34 48.32 -19 49 C-18.98541748 47.794646 -18.97083496 46.58929199 -18.95581055 45.34741211 C-18.89761675 40.85379116 -18.82038552 36.36066029 -18.73754883 31.86743164 C-18.70439841 29.92675765 -18.676336 27.98598954 -18.65356445 26.04516602 C-18.61983616 23.24715253 -18.56751181 20.4499939 -18.51171875 17.65234375 C-18.50532883 16.7916478 -18.4989389 15.93095184 -18.49235535 15.04417419 C-18.36232442 9.65534988 -17.59753543 5.75949312 -15 1 C-10.38380836 -1.6378238 -5.04602654 -1.43211039 0 0 Z M-51 65 C-52.27213144 67.02114885 -52.27213144 67.02114885 -53 69 C-53.66 69 -54.32 69 -55 69 C-57.88607816 80.93084097 -59.07719526 96.19312206 -55 108 C-51.92354476 112.21913861 -48.09356254 114.80532806 -43 116 C-34.69756824 116.83481752 -27.29547495 116.41435188 -20.5625 111.0625 C-17.47669441 106.98923662 -17.84004475 102.50275655 -17.83203125 97.56640625 C-17.82870285 96.85145493 -17.82537445 96.1365036 -17.82194519 95.39988708 C-17.81689409 93.89119101 -17.8145363 92.38248382 -17.81469727 90.8737793 C-17.81251081 88.57386773 -17.79433645 86.27443617 -17.77539062 83.97460938 C-17.77245625 82.50520997 -17.77047175 81.03580829 -17.76953125 79.56640625 C-17.76234573 78.88292618 -17.75516022 78.19944611 -17.74775696 77.49525452 C-17.77046402 72.7171468 -18.22648622 68.84172585 -21.625 65.3125 C-30.11478032 60.6207793 -42.46003779 60.06743562 -51 65 Z " fill="#F1F1F1" transform="translate(456,48)"/>
<path d="M0 0 C0.99386719 -0.00773437 1.98773438 -0.01546875 3.01171875 -0.0234375 C10.7721927 -0.00293427 17.33274472 1.11432582 24.5 4.25 C24.5 4.91 24.5 5.57 24.5 6.25 C25.20125 6.415 25.9025 6.58 26.625 6.75 C31.5218447 9.3048755 34.18656276 13.87330404 36.8125 18.625 C38.93248281 26.71947982 38.65950407 35.33814986 38.66796875 43.64453125 C38.67296135 45.37010506 38.67296135 45.37010506 38.67805481 47.13053894 C38.6830878 49.54494836 38.68546427 51.95936464 38.68530273 54.3737793 C38.68750385 58.06896235 38.70573791 61.76385343 38.72460938 65.45898438 C38.72754112 67.81249898 38.72952738 70.166015 38.73046875 72.51953125 C38.73765427 73.62166458 38.74483978 74.72379791 38.75224304 75.85932922 C38.74916641 76.88777451 38.74608978 77.91621979 38.74291992 78.97583008 C38.74434494 79.87610428 38.74576996 80.77637848 38.74723816 81.70393372 C38.46998238 84.55912241 37.77467229 86.68546093 36.5 89.25 C33.80893093 90.59553453 31.62834578 90.45594114 28.625 90.5 C27.57570313 90.52578125 26.52640625 90.5515625 25.4453125 90.578125 C22.05572356 90.20050501 20.91059632 89.61893823 18.5 87.25 C17.99447632 84.80363464 17.99447632 84.80363464 17.98583984 81.86401367 C17.9725766 80.76244431 17.95931335 79.66087494 17.94564819 78.52592468 C17.95069366 77.33529922 17.95573914 76.14467377 17.9609375 74.91796875 C17.94914459 73.69346512 17.93735168 72.46896149 17.92520142 71.20735168 C17.88982146 67.28393961 17.88076182 63.36105879 17.875 59.4375 C17.85865407 55.52481291 17.83657609 51.61236459 17.80337524 47.69978333 C17.78376541 45.26355626 17.77440816 42.82722004 17.77645874 40.39091492 C17.76949982 39.27988907 17.76254089 38.16886322 17.75537109 37.02416992 C17.75411224 36.05170822 17.75285339 35.07924652 17.7515564 34.07731628 C17.40876276 30.22455789 16.49963356 26.72314419 14.3125 23.5 C7.90016755 19.07770176 -0.83100344 19.46846522 -8.20703125 20.703125 C-10.31647137 21.16819841 -12.41057954 21.70195529 -14.5 22.25 C-14.644375 23.03375 -14.78875 23.8175 -14.9375 24.625 C-15.5 27.25 -15.5 27.25 -16.5 29.25 C-16.59933307 31.08247293 -16.63556632 32.91850962 -16.6418457 34.75366211 C-16.64888016 35.90503159 -16.65591461 37.05640106 -16.66316223 38.24266052 C-16.66732651 39.49160599 -16.67149078 40.74055145 -16.67578125 42.02734375 C-16.69897308 44.65039871 -16.72309015 47.27344562 -16.74804688 49.89648438 C-16.78449551 54.04874714 -16.81422634 58.20085997 -16.82592773 62.35327148 C-16.83792663 66.34907577 -16.88150989 70.344263 -16.92578125 74.33984375 C-16.92387283 75.58676498 -16.92196442 76.83368622 -16.91999817 78.11839294 C-16.93648911 79.27291458 -16.95298004 80.42743622 -16.9699707 81.61694336 C-16.97583694 82.63461288 -16.98170319 83.65228241 -16.98774719 84.70079041 C-17.5 87.25 -17.5 87.25 -19.35124207 89.07936096 C-22.20405506 90.63356779 -24.32979822 90.61457574 -27.5625 90.5625 C-28.60535156 90.55863281 -29.64820313 90.55476563 -30.72265625 90.55078125 C-33.5 90.25 -33.5 90.25 -36.5 88.25 C-37.52485227 85.17544318 -37.63268069 83.05678725 -37.64526367 79.83569336 C-37.65164352 78.72701401 -37.65802338 77.61833466 -37.66459656 76.47605896 C-37.66570938 75.27610794 -37.6668222 74.07615692 -37.66796875 72.83984375 C-37.67129715 71.60263077 -37.67462555 70.36541779 -37.67805481 69.0907135 C-37.68312364 66.46713635 -37.68546315 63.84355274 -37.68530273 61.2199707 C-37.68518188 57.22795016 -37.7056035 53.23611577 -37.72460938 49.24414062 C-37.72754564 46.69270928 -37.72952887 44.14127662 -37.73046875 41.58984375 C-37.73765427 40.40406235 -37.74483978 39.21828094 -37.75224304 37.99656677 C-37.7265604 28.55750262 -37.54971542 19.90111068 -31.5 12.25 C-30.9225 11.404375 -30.345 10.55875 -29.75 9.6875 C-21.57393312 0.83009421 -11.44339744 -0.08905368 0 0 Z " fill="#F1F1F1" transform="translate(328.5,90.75)"/>
<path d="M0 0 C7.00197035 2.62573888 10.48307644 10.93020592 13.93359375 17.109375 C15.27607257 19.48944734 16.66519589 21.83920512 18.0625 24.1875 C18.79146484 25.41533203 18.79146484 25.41533203 19.53515625 26.66796875 C20.96290344 29.01516023 20.96290344 29.01516023 22.62890625 31.15625 C24 33 24 33 24.875 35.3125 C25.91925487 37.80710885 26.96423376 39.28971205 28.625 41.375 C30.56030567 44.02814902 31.01740887 45.10832185 31.5625 48.5 C30.86413027 52.84541168 29.39512107 55.33247086 27 59 C26.34 59 25.68 59 25 59 C24.75636719 59.84175781 24.51273438 60.68351562 24.26171875 61.55078125 C22.85637574 65.39263227 20.95472137 68.72722988 18.8125 72.1875 C18.41321289 72.84242432 18.01392578 73.49734863 17.60253906 74.17211914 C14.14174496 79.82801788 10.58551893 85.4225261 7 91 C3.31184697 96.77662523 -0.10835382 102.67084231 -3.44921875 108.65625 C-4.21685547 109.81640625 -4.21685547 109.81640625 -5 111 C-5.66 111 -6.32 111 -7 111 C-7.4021875 112.3303125 -7.4021875 112.3303125 -7.8125 113.6875 C-8.9250635 116.7909666 -10.10195778 119.31110685 -12 122 C-12.66 122 -13.32 122 -14 122 C-14.226875 122.886875 -14.45375 123.77375 -14.6875 124.6875 C-16.17769805 128.44847603 -18.01571268 130.32179343 -21 133 C-21.33 133.33 -21.66 133.66 -22 134 C-28.38873239 134.47323944 -28.38873239 134.47323944 -30.9375 132.5 C-31.4634375 131.7575 -31.4634375 131.7575 -32 131 C-29.66666667 126.33333333 -27.33333333 121.66666667 -25 117 C-24.34 117 -23.68 117 -23 117 C-22.773125 116.175 -22.54625 115.35 -22.3125 114.5 C-20.98244196 110.95317857 -19.33105238 108.15031326 -17.28125 104.9921875 C-15.8109715 102.70608373 -14.49491402 100.34346089 -13.16015625 97.9765625 C-10.57365016 93.5699225 -7.7569855 89.30114745 -5 85 C-2.09907576 80.45493176 0.67511533 75.85530061 3.375 71.1875 C7.36129714 64.31397233 11.59278772 57.61081842 16 51 C16.59762554 46.02205087 15.54362469 43.70761493 12.5 39.8125 C9 35.29166667 9 35.29166667 9 32 C8.01 31.67 7.02 31.34 6 31 C4.71875 28.8203125 4.71875 28.8203125 3.5 26.125 C1.97803487 22.77862794 0.6196175 20.54297975 -2 18 C-3.0625 16.09765625 -3.0625 16.09765625 -4 14.0625 C-5.13910714 11.65234282 -6.09846153 9.88116712 -7.8125 7.8125 C-9 6 -9 6 -8.8125 3.3125 C-7.30507582 -0.97786113 -4.05841349 -0.31830694 0 0 Z " fill="#E3E3E3" transform="translate(505,47)"/>
<path d="M0 0 C0.856601 2.88221041 1.30063531 4.38064605 -0.0390625 7.140625 C-0.82410156 8.18476562 -0.82410156 8.18476562 -1.625 9.25 C-3.76032917 12.22473444 -5.70762899 15.14667885 -7.4375 18.375 C-9.86695922 22.8577441 -12.59137508 27.11742398 -15.3515625 31.40234375 C-17.34655938 34.54611845 -19.19211186 37.74580135 -21 41 C-21.66 41 -22.32 41 -23 41 C-23.103125 41.53625 -23.20625 42.0725 -23.3125 42.625 C-24.18092697 45.62502044 -25.55620296 48.2379535 -27 51 C-27.66 51 -28.32 51 -29 51 C-29.2475 51.86625 -29.495 52.7325 -29.75 53.625 C-30.8174761 56.50718547 -31.98845785 58.62970951 -33.73828125 61.12109375 C-36.06470854 64.58552572 -38.10849799 68.2157273 -40.16015625 71.84765625 C-42 75 -42 75 -43.99609375 77.87109375 C-45.79982754 80.60578692 -47.15327064 82.83174344 -48 86 C-46.81054159 89.96289858 -44.55313715 92.79235099 -42 96 C-41.21008946 97.23803286 -40.43794055 98.48765179 -39.6875 99.75 C-37.71194629 102.89554184 -35.70505308 106.02063605 -33.69433594 109.14379883 C-32.90073651 110.37718731 -32.10840943 111.61139543 -31.31738281 112.84643555 C-29.67110202 115.41553661 -28.0166541 117.97534577 -26.30859375 120.50390625 C-24.44123325 123.30760706 -23.07394577 125.51407063 -22.5625 128.875 C-23 131 -23 131 -25 133 C-30.07906927 133.47915748 -32.90460096 133.01189189 -37 130 C-38.7734375 127.46875 -38.7734375 127.46875 -40.375 124.5 C-42.66561837 120.37589317 -45.00432412 116.33932554 -47.5625 112.375 C-50.29443924 108.12463918 -52.94297827 103.83766121 -55.5078125 99.484375 C-56.55247968 97.74508619 -57.63401372 96.02765609 -58.7421875 94.328125 C-59.30164063 93.45671875 -59.86109375 92.5853125 -60.4375 91.6875 C-60.95183594 90.90761719 -61.46617187 90.12773437 -61.99609375 89.32421875 C-63.25115613 86.41852957 -62.93098749 84.98114079 -62 82 C-60.3167588 78.72210925 -58.17604979 75.91011472 -55.9375 73 C-53.69878202 70.06442618 -52.32668368 67.44937758 -51 64 C-49.81237281 62.22927787 -48.5507357 60.52432099 -47.28515625 58.80859375 C-45.716713 56.60133166 -44.39149684 54.27787378 -43.07421875 51.9140625 C-36.3523293 39.93687766 -28.93289683 28.24076684 -21.2265625 16.875 C-20.06442173 15.09847908 -19.02140196 13.29761414 -18 11.4375 C-10.32532001 -1.75335623 -10.32532001 -1.75335623 0 0 Z " fill="#E3E3E3" transform="translate(587,48)"/>
<path d="M0 0 C1.24652344 -0.02835937 2.49304688 -0.05671875 3.77734375 -0.0859375 C7.0625 0.375 7.0625 0.375 8.74256897 1.91467285 C10.56292689 5.30778652 10.48950558 8.44468509 10.46655273 12.20117188 C10.47341599 12.98537003 10.48027924 13.76956818 10.48735046 14.57752991 C10.50563323 17.16645475 10.50177938 19.75477453 10.49609375 22.34375 C10.5006545 24.14449257 10.50595975 25.94523339 10.51197815 27.74597168 C10.52091187 31.51870804 10.51848276 35.29123274 10.50854492 39.06396484 C10.49704838 43.89973748 10.51727567 48.73478066 10.54646206 53.57045746 C10.56480261 57.28851972 10.56453602 61.00640642 10.55882454 64.72450256 C10.5586711 66.50750248 10.56473444 68.29051413 10.57711601 70.07347107 C10.591986 72.56572341 10.58137986 75.05661842 10.56420898 77.54882812 C10.57387695 78.28557266 10.58354492 79.0223172 10.59350586 79.78138733 C10.54403063 83.2088071 10.29890662 85.06116525 8.21083069 87.83312988 C5.37082451 89.87141975 3.53164052 89.87754638 0.0625 89.8125 C-0.96875 89.81121094 -2 89.80992187 -3.0625 89.80859375 C-6.30786011 89.31914406 -7.6891645 88.75344751 -9.9375 86.375 C-11.06799286 82.28723501 -11.07027005 78.31669286 -11.08276367 74.09375 C-11.08612228 73.37928711 -11.0894809 72.66482422 -11.09294128 71.92871094 C-11.10240587 69.57745607 -11.10439191 67.22627271 -11.10546875 64.875 C-11.10868368 63.23502575 -11.11204793 61.59505178 -11.11555481 59.95507812 C-11.12153427 56.52212865 -11.12339585 53.08920431 -11.12280273 49.65625 C-11.122701 45.26136746 -11.13637002 40.86664607 -11.15357494 36.47180176 C-11.16470053 33.08658103 -11.1667218 29.70139925 -11.16619301 26.31616211 C-11.16737163 24.6958765 -11.17178681 23.07558983 -11.17952538 21.45532227 C-11.1893397 19.18885015 -11.18644201 16.92272793 -11.18041992 14.65625 C-11.18184494 13.36783203 -11.18326996 12.07941406 -11.18473816 10.75195312 C-10.58579872 2.57121592 -8.07646389 0.08334844 0 0 Z " fill="#EFEFEF" transform="translate(264.9375,91.625)"/>
<path d="M0 0 C1.66611905 -0.042721 3.33382885 -0.04063832 5 0 C6.58413359 1.58413359 6.12979629 3.20977785 6.1328125 5.40234375 C6.13410156 6.29244141 6.13539063 7.18253906 6.13671875 8.09960938 C6.13285156 9.03611328 6.12898438 9.97261719 6.125 10.9375 C6.13080078 12.33645508 6.13080078 12.33645508 6.13671875 13.76367188 C6.13542969 14.65505859 6.13414062 15.54644531 6.1328125 16.46484375 C6.13168457 17.285896 6.13055664 18.10694824 6.12939453 18.95288086 C6 21 6 21 5 23 C4.34 23 3.68 23 3 23 C3 23.66 3 24.32 3 25 C-2.28 25.66 -7.56 26.32 -13 27 C-7.7265625 27.68359375 -7.7265625 27.68359375 -2.453125 28.3671875 C0.49878402 28.9081482 2.51525129 29.37164526 5 31 C6.29729053 33.59458106 6.2042812 35.60447598 6.25 38.5 C6.27578125 39.4796875 6.3015625 40.459375 6.328125 41.46875 C6.21984375 42.3040625 6.1115625 43.139375 6 44 C2.64880481 46.23413013 1.5822245 46.23847762 -2.32421875 46.1953125 C-3.86625977 46.18564453 -3.86625977 46.18564453 -5.43945312 46.17578125 C-6.51130859 46.15902344 -7.58316406 46.14226562 -8.6875 46.125 C-9.77095703 46.11597656 -10.85441406 46.10695313 -11.97070312 46.09765625 C-14.6473571 46.0740734 -17.32356797 46.04116126 -20 46 C-21.64251954 40.74017597 -21.98710125 37.42905687 -21 32 C-21.020625 30.906875 -21.04125 29.81375 -21.0625 28.6875 C-21 26 -21 26 -19 24 C-19.33 23.38125 -19.66 22.7625 -20 22.125 C-21.41581315 17.70058392 -21.59196097 13.6032754 -21 9 C-19.32957227 5.96285868 -17.94969777 5.28987403 -14.68359375 4.29296875 C-10.08223193 3.23006103 -6.63004647 2.84870043 -2 4 C-1.34 2.68 -0.68 1.36 0 0 Z M-14 12 C-14 13.65 -14 15.3 -14 17 C-9.22293518 19.66083525 -9.22293518 19.66083525 -4.0625 19.1875 C-3.381875 18.795625 -2.70125 18.40375 -2 18 C-1.7497843 15.08365871 -1.7497843 15.08365871 -2 12 C-6.41280092 9.05813272 -9.48990054 9.32734847 -14 12 Z M-13 35 C-14.29633621 36.06645115 -14.29633621 36.06645115 -14.0625 38.5625 C-14.041875 39.366875 -14.02125 40.17125 -14 41 C-10.49852959 42.1671568 -7.67329964 42.13357453 -4 42 C-3.34 41.67 -2.68 41.34 -2 41 C-2.33 39.35 -2.66 37.7 -3 36 C-4.64507218 35.80593522 -6.29109594 35.61992065 -7.9375 35.4375 C-8.85402344 35.33308594 -9.77054687 35.22867188 -10.71484375 35.12109375 C-11.84599609 35.06115234 -11.84599609 35.06115234 -13 35 Z " fill="#DFDFDF" transform="translate(367,212)"/>
<path d="M0 0 C0.33 1.32 0.66 2.64 1 4 C1.66 4 2.32 4 3 4 C7 10.625 7 10.625 7 14 C7.99 14.33 8.98 14.66 10 15 C11.28125 17.14453125 11.28125 17.14453125 12.5 19.8125 C14.06629307 23.21115516 15.72195081 26.03853605 18 29 C18.77486587 30.34009337 19.5241893 31.69521576 20.25 33.0625 C22.76073102 37.69357398 25.60824688 42.05226275 28.546875 46.421875 C30.00683156 49.01212051 30.59984545 51.07255356 31 54 C27.27420911 56.48386059 25.41288598 56.3804212 21 56 C16.42565692 53.89652255 14.56687653 51.23437507 12.0625 46.9375 C11.72186523 46.36185303 11.38123047 45.78620605 11.03027344 45.19311523 C10.01070731 43.46764051 9.00518377 41.73389264 8 40 C6.91978742 38.18563837 5.8368032 36.37292154 4.75 34.5625 C4.27304687 33.76328125 3.79609375 32.9640625 3.3046875 32.140625 C2.20542295 30.33704124 1.04662569 28.56993853 -0.125 26.8125 C-1.85218988 24.22171519 -3.40610237 21.57814177 -4.921875 18.859375 C-6.10742689 16.81472753 -7.39379004 14.85274052 -8.6875 12.875 C-10.51845443 9.9386706 -12 7.55618899 -12 4 C-9.91333822 -1.514749 -5.00290271 -0.37757756 0 0 Z " fill="#E4E4E4" transform="translate(557,125)"/>
<path d="M0 0 C4.34420911 2.29987541 6.93057404 4.51624375 9 9 C9 9.99 9 10.98 9 12 C9.99 12.33 10.98 12.66 12 13 C13.4296875 15.22265625 13.4296875 15.22265625 14.875 18.0625 C18.09154824 24.3286172 21.7743456 30.2010959 25.7109375 36.03515625 C26.59895833 37.37760417 27.48697917 38.72005208 28.375 40.0625 C28.83777344 40.73087891 29.30054688 41.39925781 29.77734375 42.08789062 C32.14915115 45.73056199 33.02084503 47.39242855 32.8671875 51.87109375 C31.57660521 56.52765416 31.57660521 56.52765416 29 58 C25.51967799 57.73897585 23.94903702 56.96602468 21 55 C21 54.01 21 53.02 21 52 C20.34 52 19.68 52 19 52 C18.47212891 51.00033203 18.47212891 51.00033203 17.93359375 49.98046875 C14.25258308 43.10860809 10.24175153 36.53728765 6 30 C2.83414948 25.05840329 -0.11815508 20.05921493 -2.88671875 14.8828125 C-3.98215236 12.85200078 -3.98215236 12.85200078 -6 11 C-7.31881375 8.05206338 -8.29981122 5.15084949 -9 2 C-5.46569344 -0.35620437 -4.16428713 -0.48991613 0 0 Z " fill="#E1E1E1" transform="translate(482,47)"/>
<path d="M0 0 C0.33 3.96 0.66 7.92 1 12 C1.96421875 11.95359375 2.9284375 11.9071875 3.921875 11.859375 C5.18515625 11.82328125 6.4484375 11.7871875 7.75 11.75 C9.00296875 11.70359375 10.2559375 11.6571875 11.546875 11.609375 C15 12 15 12 17.390625 13.765625 C20.03743078 17.44031652 20.12351578 20.75528537 20.09765625 25.203125 C20.09443359 26.1828125 20.09121094 27.1625 20.08789062 28.171875 C20.07951172 29.18765625 20.07113281 30.2034375 20.0625 31.25 C20.05798828 32.28125 20.05347656 33.3125 20.04882812 34.375 C20.03706088 36.91672573 20.02062011 39.45833319 20 42 C17.26752652 43.36623674 15.01801098 43.128426 12 43 C10.34920558 41.34920558 10.77450553 39.36263821 10.68359375 37.08984375 C10.64169922 36.10048828 10.59980469 35.11113281 10.55664062 34.09179688 C10.51732422 33.05087891 10.47800781 32.00996094 10.4375 30.9375 C10.39431641 29.89271484 10.35113281 28.84792969 10.30664062 27.77148438 C10.20018775 25.18113116 10.0981724 22.59067814 10 20 C5.46859347 19.06619039 5.46859347 19.06619039 1 20 C0.97494385 20.6612085 0.9498877 21.32241699 0.92407227 22.00366211 C0.80846898 24.98182305 0.68558246 27.9596392 0.5625 30.9375 C0.52318359 31.97841797 0.48386719 33.01933594 0.44335938 34.09179688 C0.40146484 35.08115234 0.35957031 36.07050781 0.31640625 37.08984375 C0.26141968 38.46450806 0.26141968 38.46450806 0.20532227 39.86694336 C0 42 0 42 -1 43 C-4 43.125 -4 43.125 -7 43 C-8 42 -8 42 -8.11352539 38.03100586 C-8.1133662 36.25894393 -8.10766785 34.4868774 -8.09765625 32.71484375 C-8.0962413 31.78402481 -8.09482635 30.85320587 -8.09336853 29.8941803 C-8.08775172 26.90858809 -8.0751964 23.92306971 -8.0625 20.9375 C-8.05748716 18.91862087 -8.05292388 16.89974057 -8.04882812 14.88085938 C-8.03777683 9.92054428 -8.02050095 4.96028468 -8 0 C-5.13822943 -1.43088528 -3.06624227 -0.59991697 0 0 Z " fill="#D9D9D9" transform="translate(211,204)"/>
<path d="M0 0 C2.33944736 0.28730055 4.6739143 0.61936779 7 1 C7.33 4.96 7.66 8.92 8 13 C8.89203125 12.96519531 9.7840625 12.93039063 10.703125 12.89453125 C11.87359375 12.86746094 13.0440625 12.84039062 14.25 12.8125 C15.41015625 12.77769531 16.5703125 12.74289063 17.765625 12.70703125 C21.29399704 13.02663017 22.62910716 13.39766286 25 16 C25.89893547 19.45429067 26.12829743 22.70646269 26.1328125 26.265625 C26.13474609 27.72355469 26.13474609 27.72355469 26.13671875 29.2109375 C26.13285156 30.21382812 26.12898438 31.21671875 26.125 32.25 C26.13080078 33.77753906 26.13080078 33.77753906 26.13671875 35.3359375 C26.13542969 36.30273438 26.13414062 37.26953125 26.1328125 38.265625 C26.13168457 39.15024414 26.13055664 40.03486328 26.12939453 40.94628906 C26 43 26 43 25 44 C22 44.125 22 44.125 19 44 C17.39042791 42.39042791 17.81568012 40.60380558 17.75390625 38.37890625 C17.70459961 36.97608398 17.70459961 36.97608398 17.65429688 35.54492188 C17.59322266 33.56065969 17.53591545 31.57627789 17.48242188 29.59179688 C17.44826172 28.65529297 17.41410156 27.71878906 17.37890625 26.75390625 C17.3538501 25.89095947 17.32879395 25.0280127 17.30297852 24.13891602 C17.18847533 21.78784483 17.18847533 21.78784483 15 20 C11.93008319 20.16442277 11.93008319 20.16442277 9 21 C7.82530556 23.34938888 7.79965111 24.95073205 7.68359375 27.5703125 C7.64169922 28.46621094 7.59980469 29.36210937 7.55664062 30.28515625 C7.51732422 31.22230469 7.47800781 32.15945312 7.4375 33.125 C7.39431641 34.06988281 7.35113281 35.01476562 7.30664062 35.98828125 C7.20040928 38.32537092 7.09836824 40.6625683 7 43 C4.29120665 44.35439668 1.99066732 44.06501451 -1 44 C-1.02464513 37.8944529 -1.04283371 31.78893449 -1.05493164 25.68334961 C-1.05997288 23.60456844 -1.06680574 21.52579084 -1.07543945 19.44702148 C-1.08751422 16.46597414 -1.09323024 13.48497351 -1.09765625 10.50390625 C-1.10539818 9.10078941 -1.10539818 9.10078941 -1.11329651 7.66932678 C-1.11337204 6.80850998 -1.11344757 5.94769318 -1.11352539 5.06079102 C-1.115746 4.29912125 -1.11796661 3.53745148 -1.12025452 2.75270081 C-1 1 -1 1 0 0 Z " fill="#DBDBDB" transform="translate(480,203)"/>
<path d="M0 0 C1 1 1 1 1 7 C-4.28 6.67 -9.56 6.34 -15 6 C-14.67 7.65 -14.34 9.3 -14 11 C-11.68613629 12.47693428 -9.42782853 13.73839625 -7 15 C-3.2518414 16.97758949 0.07987209 18.8973641 3 22 C4.3751222 26.54848111 4.05144269 30.62364522 2.12890625 34.96875 C-0.45545584 38.61726119 -3.59088395 40.02780056 -7.80859375 40.828125 C-12.71241492 41.21273843 -17.35045256 40.54984915 -22 39 C-22 38.34 -22 37.68 -22 37 C-22.66 37 -23.32 37 -24 37 C-24.1875 34.625 -24.1875 34.625 -24 32 C-23.01 31.34 -22.02 30.68 -21 30 C-20.01 30.33 -19.02 30.66 -18 31 C-15.93854893 31.068991 -13.87498599 31.08467727 -11.8125 31.0625 C-10.72582031 31.05347656 -9.63914062 31.04445312 -8.51953125 31.03515625 C-7.68808594 31.02355469 -6.85664063 31.01195312 -6 31 C-6 29.68 -6 28.36 -6 27 C-6.99 26.34 -7.98 25.68 -9 25 C-9 24.34 -9 23.68 -9 23 C-9.56332031 22.8865625 -10.12664062 22.773125 -10.70703125 22.65625 C-15.07845099 21.4051452 -18.74108218 19.16016273 -22 16 C-23.17919605 12.92860564 -23.1928719 10.25544395 -23 7 C-23.020625 5.906875 -23.04125 4.81375 -23.0625 3.6875 C-21.84536592 0.60886674 -21.18568557 0.18528386 -18.375 -1.375 C-11.51614504 -4.29704338 -6.4281085 -3.21405425 0 0 Z " fill="#D9D9D9" transform="translate(446,208)"/>
<path d="M0 0 C1.97806641 -0.04253906 1.97806641 -0.04253906 3.99609375 -0.0859375 C7.5625 0.375 7.5625 0.375 9.97265625 2.2109375 C12.59224524 5.77666797 12.69883949 8.70233383 12.6875 13 C12.69136719 14.47339844 12.69136719 14.47339844 12.6953125 15.9765625 C12.5625 18.375 12.5625 18.375 11.5625 19.375 C8.69982433 19.44825168 5.861781 19.46738205 3 19.4375 C2.19369141 19.43298828 1.38738281 19.42847656 0.55664062 19.42382812 C-1.44143756 19.41200518 -3.43947783 19.39406914 -5.4375 19.375 C-4.7775 20.695 -4.1175 22.015 -3.4375 23.375 C-2.43847656 23.36339844 -1.43945312 23.35179687 -0.41015625 23.33984375 C0.88019531 23.33082031 2.17054688 23.32179687 3.5 23.3125 C4.78777344 23.30089844 6.07554687 23.28929687 7.40234375 23.27734375 C10.5625 23.375 10.5625 23.375 11.5625 24.375 C11.875 26.75 11.875 26.75 11.5625 29.375 C9.31035337 32.11674372 6.75090803 32.71640435 3.375 33.3125 C-1.94547043 33.72514375 -6.05624464 32.38930369 -10.4375 29.375 C-14.7268555 24.35331551 -15.05265411 19.83667862 -14.83203125 13.32421875 C-14.27538309 9.16313595 -12.99984625 5.71719076 -10.4375 2.375 C-6.84522276 -0.0198515 -4.1551193 0.00796763 0 0 Z M-5.4375 8.375 C-5.4375 9.365 -5.4375 10.355 -5.4375 11.375 C-1.4775 11.375 2.4825 11.375 6.5625 11.375 C6.5625 10.385 6.5625 9.395 6.5625 8.375 C5.12916979 7.98436493 3.69057321 7.61301526 2.25 7.25 C1.44949219 7.04117188 0.64898437 6.83234375 -0.17578125 6.6171875 C-2.71957233 6.10072666 -2.71957233 6.10072666 -5.4375 8.375 Z " fill="#E0E0E0" transform="translate(160.4375,215.625)"/>
<path d="M0 0 C1.96453125 0.02320313 1.96453125 0.02320313 3.96875 0.046875 C9.76 0.38 9.76 0.38 11.5 1.25 C14.54597258 5.77071948 14.96484646 9.93907591 14.875 15.25 C14.88660156 15.93578125 14.89820313 16.6215625 14.91015625 17.328125 C14.88322593 22.03195432 14.03955576 25.29504963 11.5 29.25 C7.80966308 32.44773538 3.70216332 33.58431368 -1.125 33.25 C-6.52282449 32.31003401 -10.06408673 30.16455103 -13.375 25.75 C-15.38422794 19.49906862 -15.65337435 12.39401617 -13.25 6.1875 C-9.75296002 0.3174686 -6.70447513 -0.13197786 0 0 Z M-6.5 8.25 C-6.5810206 10.35353495 -6.63919907 12.45795952 -6.6875 14.5625 C-6.72230469 15.73425781 -6.75710938 16.90601563 -6.79296875 18.11328125 C-6.75364918 21.18969569 -6.75364918 21.18969569 -5.24609375 23.15234375 C-2.0740518 25.14640144 0.83636569 24.4863635 4.5 24.25 C5.91774838 23.06147145 5.91774838 23.06147145 5.59765625 19.65234375 C5.5909822 18.16403133 5.57902183 16.67573568 5.5625 15.1875 C5.55798828 14.42888672 5.55347656 13.67027344 5.54882812 12.88867188 C5.5370068 11.00908129 5.51907078 9.12953101 5.5 7.25 C4.2625 7.04375 3.025 6.8375 1.75 6.625 C0.70585937 6.45097656 0.70585937 6.45097656 -0.359375 6.2734375 C-2.91362136 6.2454713 -4.32418535 6.96607334 -6.5 8.25 Z " fill="#DBDBDB" transform="translate(327.5,215.75)"/>
<path d="M0 0 C2.31 0 4.62 0 7 0 C8.55569868 5.27676175 9.88511282 10.57843206 11.125 15.9375 C11.30675781 16.71673828 11.48851562 17.49597656 11.67578125 18.29882812 C12.11873325 20.19885905 12.55958617 22.09937914 13 24 C13.99 24 14.98 24 16 24 C16.11069824 23.45061768 16.22139648 22.90123535 16.33544922 22.33520508 C16.84377727 19.82662467 17.35932071 17.31957911 17.875 14.8125 C18.04902344 13.94818359 18.22304688 13.08386719 18.40234375 12.19335938 C19.28084269 7.94728116 20.17814954 3.96375572 22 0 C24.31 0 26.62 0 29 0 C29.26439306 4.14215788 29.06003869 7.21338057 27.609375 11.11328125 C25.59379541 16.91855489 24.62476262 22.8411253 23.62695312 28.890625 C22.70954149 33.92679264 21.7899004 37.29168259 18 41 C15.47524538 42.26237731 13.68799534 42.09856404 10.875 42.0625 C9.96492188 42.05347656 9.05484375 42.04445313 8.1171875 42.03515625 C7.41851562 42.02355469 6.71984375 42.01195312 6 42 C6 40.68 6 39.36 6 38 C7.63064764 36.94228261 9.30280873 35.94726954 11 35 C12.78344178 32.93045153 12.78344178 32.93045153 14 31 C13.236875 31.061875 12.47375 31.12375 11.6875 31.1875 C9 31 9 31 7.46484375 29.87890625 C3.60014004 24.92177963 2.1285561 17.11396873 1.375 10.9375 C1.17381156 8.03224194 1.17381156 8.03224194 -0.125 5.8125 C-1 4 -1 4 -0.625 1.75 C-0.41875 1.1725 -0.2125 0.595 0 0 Z " fill="#D7D7D7" transform="translate(376,216)"/>
<path d="M0 0 C0.77214844 -0.01611328 1.54429687 -0.03222656 2.33984375 -0.04882812 C8.05695312 -0.05378229 8.05695312 -0.05378229 10.17114258 1.6940918 C14.97021337 7.53885393 13.99111138 15.20775532 13.5 22.3125 C12.99911199 25.55738318 12.50149771 26.52253349 10.5 29.3125 C6.41001085 32.15554124 2.3199871 33.7025998 -2.6875 33.25 C-11.38390433 31.11153992 -11.38390433 31.11153992 -14.140625 26.66796875 C-15.69487566 22.83147071 -15.93330315 19.94220413 -15.9375 15.8125 C-15.95683594 14.5440625 -15.97617187 13.275625 -15.99609375 11.96875 C-15.42055625 7.72699329 -14.18164647 5.6100038 -11.5 2.3125 C-7.65681569 -0.24962287 -4.45306045 -0.01858539 0 0 Z M-7.5 8.3125 C-7.58075665 10.60359597 -7.63907731 12.89549267 -7.6875 15.1875 C-7.72230469 16.46367187 -7.75710938 17.73984375 -7.79296875 19.0546875 C-7.69628906 20.12976563 -7.59960938 21.20484375 -7.5 22.3125 C-3.41569792 25.03536806 -1.35409123 24.69774534 3.5 24.3125 C5.65164703 21.08502945 5.77245079 20.10744361 5.75 16.375 C5.75515625 15.52035156 5.7603125 14.66570312 5.765625 13.78515625 C5.47983678 11.12480415 5.01503026 9.51573028 3.5 7.3125 C-1.00360337 6.14489913 -3.49224016 6.03496247 -7.5 8.3125 Z " fill="#DEDEDE" transform="translate(557.5,215.6875)"/>
<path d="M0 0 C0.71607422 -0.02449219 1.43214844 -0.04898438 2.16992188 -0.07421875 C5.69126683 -0.09379991 7.6590739 0.06512198 10.48828125 2.23828125 C14.73894423 8.00779155 14.64891921 14.48457429 14.0625 21.375 C13.43851307 25.45126246 12.55017642 28.26001271 9.17578125 30.7890625 C4.55223488 33.16135331 0.34653939 33.9848399 -4.7890625 33.12890625 C-9.11329783 31.61149276 -12.88117675 28.48764651 -14.9375 24.375 C-15.11528623 21.77524068 -15.21503022 19.22675193 -15.25 16.625 C-15.27900391 15.92117187 -15.30800781 15.21734375 -15.33789062 14.4921875 C-15.40021511 9.33363787 -14.33308075 6.46193323 -10.9375 2.375 C-7.22932221 -0.09711853 -4.2949099 0.00769008 0 0 Z M-5.3125 7.6875 C-7.86852252 11.91476802 -7.7536173 16.55917271 -6.9375 21.375 C-5.78035777 23.28248428 -5.78035777 23.28248428 -3.9375 24.375 C-1.88386394 24.7356631 -1.88386394 24.7356631 0.25 24.5625 C1.508125 24.500625 2.76625 24.43875 4.0625 24.375 C4.0625 23.715 4.0625 23.055 4.0625 22.375 C4.7225 22.375 5.3825 22.375 6.0625 22.375 C6.1435206 20.27146505 6.20169907 18.16704048 6.25 16.0625 C6.28480469 14.89074219 6.31960938 13.71898437 6.35546875 12.51171875 C6.32850694 9.42123285 6.32850694 9.42123285 4.734375 7.484375 C1.30666676 5.20991439 -1.85604838 5.77735569 -5.3125 7.6875 Z " fill="#DCDCDC" transform="translate(524.9375,215.625)"/>
<path d="M0 0 C4.04952866 4.04952866 3.86090896 12.39842465 4 18 C3.41686878 23.12469436 2.08890158 25.9870683 -1.6875 29.5 C-6.37855089 31.62424946 -10.48716545 32.65812334 -15.625 31.3125 C-23.52727273 26.94545455 -23.52727273 26.94545455 -25 24 C-25.28978025 20.90274877 -25.27782438 17.79674735 -25.3125 14.6875 C-25.34150391 13.83220703 -25.37050781 12.97691406 -25.40039062 12.09570312 C-25.44194903 7.96863402 -25.35664625 5.6077945 -23.23046875 1.984375 C-16.77293373 -3.76068243 -7.7716955 -2.18237939 0 0 Z M-17 7 C-17.02692484 9.29160319 -17.04636124 11.58329546 -17.0625 13.875 C-17.07410156 15.15117187 -17.08570313 16.42734375 -17.09765625 17.7421875 C-17.23176569 20.88664652 -17.23176569 20.88664652 -16 23 C-14.56344146 23.08131463 -13.1255517 23.13933559 -11.6875 23.1875 C-10.88699219 23.22230469 -10.08648437 23.25710937 -9.26171875 23.29296875 C-6.9607017 23.16669261 -6.9607017 23.16669261 -5.22265625 21.80078125 C-3.60165243 19.4132964 -3.66476606 17.86386047 -3.75 15 C-3.76546875 14.13375 -3.7809375 13.2675 -3.796875 12.375 C-3.9192819 9.85176221 -3.9192819 9.85176221 -5 7 C-9.22537309 4.23165212 -12.71062207 4.5489269 -17 7 Z " fill="#D7D7D7" transform="translate(292,217)"/>
<path d="M0 0 C2.36008817 3.54013225 2.23463644 5.01121955 2.1953125 9.19921875 C2.18886719 10.40771484 2.18242187 11.61621094 2.17578125 12.86132812 C2.15902344 14.12396484 2.14226562 15.38660156 2.125 16.6875 C2.11597656 17.96173828 2.10695313 19.23597656 2.09765625 20.54882812 C2.07405641 23.69940627 2.04113194 26.84960983 2 30 C-0.33294775 30.04241723 -2.66702567 30.04092937 -5 30 C-6 29 -6 29 -6.11352539 26.86694336 C-6.10828857 25.95050049 -6.10305176 25.03405762 -6.09765625 24.08984375 C-6.09443359 23.10048828 -6.09121094 22.11113281 -6.08789062 21.09179688 C-6.07951172 20.05087891 -6.07113281 19.00996094 -6.0625 17.9375 C-6.05798828 16.89271484 -6.05347656 15.84792969 -6.04882812 14.77148438 C-6.03699913 12.1809334 -6.02051689 9.59049441 -6 7 C-10.20594226 6.27204845 -12.80104745 5.95026186 -17 7 C-17.33 14.59 -17.66 22.18 -18 30 C-19.98 30 -21.96 30 -24 30 C-25.67030581 28.32969419 -25.13004336 26.30199205 -25.1328125 24.01171875 C-25.13410156 22.99529297 -25.13539063 21.97886719 -25.13671875 20.93164062 C-25.13091797 19.32579102 -25.13091797 19.32579102 -25.125 17.6875 C-25.12886719 16.62853516 -25.13273438 15.56957031 -25.13671875 14.47851562 C-25.13542969 13.45822266 -25.13414062 12.43792969 -25.1328125 11.38671875 C-25.13168457 10.45045654 -25.13055664 9.51419434 -25.12939453 8.54956055 C-25.00924319 6.18212576 -24.78817269 4.23233431 -24 2 C-17.07381264 -3.50020761 -8.02731824 -2.38748767 0 0 Z " fill="#DADADA" transform="translate(260,217)"/>
<path d="M0 0 C1.25159912 0.00523682 2.50319824 0.01047363 3.79272461 0.01586914 C4.78942421 0.01799156 4.78942421 0.01799156 5.80625916 0.02015686 C7.93590735 0.02577021 10.06545175 0.03832485 12.19506836 0.05102539 C13.63582205 0.05603868 15.07657739 0.06060188 16.51733398 0.06469727 C20.05577938 0.07574394 23.59416375 0.09301747 27.13256836 0.11352539 C27.51320056 2.43961109 27.84526781 4.77407803 28.13256836 7.11352539 C27.13256836 8.11352539 27.13256836 8.11352539 24.62866211 8.21118164 C23.1146582 8.1937793 23.1146582 8.1937793 21.57006836 8.17602539 C20.5581543 8.16700195 19.54624023 8.15797852 18.50366211 8.14868164 C17.3299707 8.1312793 17.3299707 8.1312793 16.13256836 8.11352539 C16.14042358 9.55973267 16.14042358 9.55973267 16.1484375 11.03515625 C16.16648954 14.60025103 16.1780011 18.16534175 16.1875 21.73046875 C16.19253976 23.27572305 16.19937155 24.82097255 16.20800781 26.36621094 C16.22008912 28.58277568 16.22580009 30.79927757 16.23022461 33.01586914 C16.23538589 33.71066879 16.24054718 34.40546844 16.24586487 35.12132263 C16.24606113 36.78581869 16.19445965 38.45018038 16.13256836 40.11352539 C15.80256836 40.44352539 15.47256836 40.77352539 15.13256836 41.11352539 C12.82256836 41.11352539 10.51256836 41.11352539 8.13256836 41.11352539 C8.13256836 30.22352539 8.13256836 19.33352539 8.13256836 8.11352539 C4.50256836 8.11352539 0.87256836 8.11352539 -2.86743164 8.11352539 C-3.86743164 7.11352539 -3.86743164 7.11352539 -3.99243164 4.11352539 C-3.82734849 0.15152976 -3.82734849 0.15152976 0 0 Z " fill="#D8D8D8" transform="translate(120.867431640625,205.886474609375)"/>
<path d="M0 0 C3.3125 1.0625 3.3125 1.0625 4.8125 2.75 C5.97379502 8.12098948 3.9597985 12.45423965 1.3125 17.0625 C0.69375 17.825625 0.075 18.58875 -0.5625 19.375 C-2.45084299 21.76319849 -3.72687127 23.9426966 -5.125 26.625 C-7.17886616 30.35930212 -8.8269836 32.99757263 -12.6875 35.0625 C-16.31401203 35.67523091 -19.50838128 35.7771174 -22.75 33.8125 C-23.6875 32.0625 -23.6875 32.0625 -23.39599609 30.19677734 C-22.62999684 27.88927718 -21.63884026 26.18349744 -20.2890625 24.1640625 C-19.80953125 23.43703125 -19.33 22.71 -18.8359375 21.9609375 C-18.33320313 21.21070313 -17.83046875 20.46046875 -17.3125 19.6875 C-14.12827381 14.91116071 -11.20757303 10.232468 -8.6875 5.0625 C-5.79884048 1.29119452 -4.82987812 0.08186234 0 0 Z " fill="#E1E1E1" transform="translate(519.6875,145.9375)"/>
<path d="M0 0 C2 2 2 2 2.3125 4.31640625 C1.93004253 7.6007598 0.87376343 9.22305253 -1 11.9375 C-4.00219802 16.43158783 -6.77977623 20.98560355 -9.4375 25.6875 C-9.79134766 26.31197021 -10.14519531 26.93644043 -10.50976562 27.57983398 C-11.34213357 29.05193027 -12.17141789 30.5257695 -13 32 C-13.66 32 -14.32 32 -15 32 C-15.33 32.99 -15.66 33.98 -16 35 C-22.40504648 35.48339973 -22.40504648 35.48339973 -25 33.375 C-26.43652269 29.96325861 -26.12315611 28.56767235 -25 25 C-23.16631215 21.55885852 -21.08029334 18.2957996 -19 15 C-17.42625077 12.28204251 -15.85690327 9.56179334 -14.296875 6.8359375 C-13.86890625 6.23007812 -13.4409375 5.62421875 -13 5 C-12.34 5 -11.68 5 -11 5 C-10.71125 4.360625 -10.4225 3.72125 -10.125 3.0625 C-7.86484004 -1.08112659 -4.29661341 -0.23017572 0 0 Z " fill="#DFDFDF" transform="translate(562,47)"/>
<path d="M0 0 C3.20441571 3.0102087 3.26503928 6.21966847 3.5 10.4375 C3.38304102 14.04860855 3.12780816 16.65613254 1 19.625 C-2.99349978 22.78652066 -4.92785974 23 -10 23 C-12.75 22.25 -12.75 22.25 -15 21 C-16.11375 20.4740625 -16.11375 20.4740625 -17.25 19.9375 C-20.09703127 16.78542967 -19.97192901 13.12643574 -20 9 C-19.5625 5.4375 -19.5625 5.4375 -19 3 C-18.34 3 -17.68 3 -17 3 C-16.67 2.01 -16.34 1.02 -16 0 C-10.40399517 -2.44825211 -5.67317897 -2.33268437 0 0 Z " fill="#EBEBEB" transform="translate(273,60)"/>
<path d="M0 0 C1.0528418 0.01353516 1.0528418 0.01353516 2.12695312 0.02734375 C3.85561525 0.05086296 5.58410145 0.08673287 7.3125 0.125 C7.3125 2.435 7.3125 4.745 7.3125 7.125 C6.62542969 7.10179687 5.93835938 7.07859375 5.23046875 7.0546875 C4.32941406 7.03664062 3.42835938 7.01859375 2.5 7 C1.60667969 6.97679687 0.71335938 6.95359375 -0.20703125 6.9296875 C-2.94152714 6.94214173 -2.94152714 6.94214173 -5.6875 9.125 C-6.05308117 12.48003476 -6.05308117 12.48003476 -5.875 16.25 C-5.813125 18.51875 -5.75125 20.7875 -5.6875 23.125 C1.2425 23.62 1.2425 23.62 8.3125 24.125 C8.3125 26.105 8.3125 28.085 8.3125 30.125 C2.86104405 32.51598945 -0.76962011 33.95416287 -6.6875 32.125 C-9.89068785 29.92560555 -12.92965391 27.64069218 -14.6875 24.125 C-14.86528623 21.52524068 -14.96503022 18.97675193 -15 16.375 C-15.02900391 15.67117187 -15.05800781 14.96734375 -15.08789062 14.2421875 C-15.15021511 9.08363787 -14.08308075 6.21193323 -10.6875 2.125 C-7.00662647 -0.32891569 -4.24394412 -0.10302759 0 0 Z " fill="#DCDCDC" transform="translate(191.6875,215.875)"/>
<path d="M0 0 C0 2.31 0 4.62 0 7 C-0.68707031 6.97679687 -1.37414062 6.95359375 -2.08203125 6.9296875 C-2.98308594 6.91164062 -3.88414062 6.89359375 -4.8125 6.875 C-5.70582031 6.85179687 -6.59914063 6.82859375 -7.51953125 6.8046875 C-10.25402714 6.81714173 -10.25402714 6.81714173 -13 9 C-13.58481121 11.88595946 -13.58481121 11.88595946 -13.6875 15.125 C-13.75324219 16.22070312 -13.81898438 17.31640625 -13.88671875 18.4453125 C-13.92410156 19.28835937 -13.96148437 20.13140625 -14 21 C-10.73386305 22.91302307 -8.00554752 23.35674661 -4.25 23.625 C-3.26515625 23.69976562 -2.2803125 23.77453125 -1.265625 23.8515625 C-0.51796875 23.90054688 0.2296875 23.94953125 1 24 C1.33 25.65 1.66 27.3 2 29 C-1.223657 31.85169658 -3.70309089 32.74724064 -8 33 C-13.51844316 32.03185208 -16.50576825 30.39274849 -20 26 C-22.52968668 20.69970409 -22.99161713 14.69142142 -21.46484375 9.0078125 C-19.97279045 5.20837622 -18.14152424 2.56296469 -15 0 C-12.08984375 -0.64453125 -12.08984375 -0.64453125 -8.9375 -0.8125 C-7.89464844 -0.88082031 -6.85179687 -0.94914063 -5.77734375 -1.01953125 C-3 -1 -3 -1 0 0 Z " fill="#D6D6D6" transform="translate(474,216)"/>
<path d="M0 0 C0 11.88 0 23.76 0 36 C1.65 36.33 3.3 36.66 5 37 C5.042721 38.66611905 5.04063832 40.33382885 5 42 C4 43 4 43 0.6875 43.1875 C-4.74098361 42.91147541 -4.74098361 42.91147541 -7 41 C-8.09593354 36.2684788 -8.13159262 31.58803344 -8.09765625 26.7578125 C-8.0962413 25.98944061 -8.09482635 25.22106873 -8.09336853 24.42941284 C-8.08780683 21.99456761 -8.0752616 19.55981706 -8.0625 17.125 C-8.05748004 15.46614717 -8.05291801 13.80729288 -8.04882812 12.1484375 C-8.03784998 8.0989223 -8.02061206 4.04947716 -8 0 C-6 -1 -6 -1 0 0 Z " fill="#DADADA" transform="translate(583,204)"/>
<path d="M0 0 C2.5 0.125 2.5 0.125 3.5 1.125 C3.58855161 3.7912603 3.61524673 6.43147114 3.59765625 9.09765625 C3.5962413 9.89529892 3.59482635 10.69294159 3.59336853 11.51475525 C3.58775316 14.07237435 3.57519812 16.62990718 3.5625 19.1875 C3.55748698 20.91731645 3.55292373 22.64713426 3.54882812 24.37695312 C3.53777875 28.62633553 3.52050386 32.87565312 3.5 37.125 C5.15 37.455 6.8 37.785 8.5 38.125 C8.5 40.105 8.5 42.085 8.5 44.125 C1.29465077 44.48526746 1.29465077 44.48526746 -1.60717773 43.16967773 C-4.63950351 39.89407753 -4.01374316 36.41945314 -3.92578125 32.1171875 C-3.92249313 31.23596222 -3.91920502 30.35473694 -3.91581726 29.44680786 C-3.90539761 27.58571989 -3.88544961 25.72466444 -3.85668945 23.86376953 C-3.81256252 21.00405185 -3.79524892 18.14517241 -3.78320312 15.28515625 C-3.76978167 13.47915446 -3.75485942 11.67316307 -3.73828125 9.8671875 C-3.73089432 9.00680878 -3.72350739 8.14643005 -3.71589661 7.25997925 C-3.60102387 0.18005119 -3.60102387 0.18005119 0 0 Z " fill="#EFEFEF" transform="translate(303.5,202.875)"/>
<path d="M0 0 C1.0528418 0.01353516 1.0528418 0.01353516 2.12695312 0.02734375 C3.85561525 0.05086296 5.58410145 0.08673287 7.3125 0.125 C7.3125 2.435 7.3125 4.745 7.3125 7.125 C5.3325 7.125 3.3525 7.125 1.3125 7.125 C1.3125 6.795 1.3125 6.465 1.3125 6.125 C2.9625 6.125 4.6125 6.125 6.3125 6.125 C6.3125 4.475 6.3125 2.825 6.3125 1.125 C4.22837093 1.18523494 2.14505565 1.27408321 0.0625 1.375 C-1.67773438 1.44460937 -1.67773438 1.44460937 -3.453125 1.515625 C-7.19101959 2.21986601 -8.24344605 3.32218584 -10.6875 6.125 C-11.3475 6.125 -12.0075 6.125 -12.6875 6.125 C-9.99775301 -0.08210844 -6.19823367 -0.15047066 0 0 Z " fill="#A5A5A5" transform="translate(191.6875,215.875)"/>
<path d="M0 0 C-0.5775 0.2475 -1.155 0.495 -1.75 0.75 C-4.13449889 1.93990475 -4.13449889 1.93990475 -6.125 4.125 C-6.74375 4.74375 -7.3625 5.3625 -8 6 C-8.66 6 -9.32 6 -10 6 C-7.82304683 0.97626191 -5.41372848 -0.29263397 0 0 Z " fill="#B1B1B1" transform="translate(554,216)"/>
<path d="M0 0 C0.8971875 0.309375 0.8971875 0.309375 1.8125 0.625 C-1.1340385 2.42566242 -4.07551935 4.12663895 -7.1875 5.625 C-5.69046729 2.17030914 -4.27938051 -0.73360809 0 0 Z " fill="#A4A4A4" transform="translate(322.1875,216.375)"/>
</svg>
