<svg width="23" height="25" viewBox="0 0 23 25" fill="none" xmlns="http://www.w3.org/2000/svg">
<path d="M12.5435 16.4362L17.4569 24.1421C17.5109 24.226 17.5411 24.3229 17.5443 24.4224C17.5476 24.5219 17.5237 24.6204 17.4752 24.7076C17.4267 24.7949 17.3554 24.8676 17.2687 24.9181C17.1821 24.9687 17.0833 24.9953 16.9827 24.9951H16.2777C16.0648 24.9954 15.8553 24.9423 15.6687 24.8409C15.482 24.7395 15.3243 24.593 15.2103 24.4151L10.2681 16.711C10.1542 16.5323 10.0937 16.3253 10.0937 16.114C10.0937 15.9028 10.1542 15.6958 10.2681 15.5171L19.855 0.579996C19.9691 0.40206 20.1267 0.255571 20.3134 0.154163C20.5 0.0527549 20.7095 -0.000275901 20.9224 1.07945e-06H21.6274C21.7279 5.66071e-05 21.8266 0.0267604 21.9131 0.0773393C21.9997 0.127918 22.071 0.200525 22.1196 0.287605C22.1681 0.374685 22.1923 0.47306 22.1894 0.572499C22.1866 0.671938 22.1569 0.768809 22.1034 0.853039L12.5472 15.8437C12.4905 15.9322 12.4601 16.0346 12.4594 16.1394C12.4588 16.2442 12.4879 16.347 12.5435 16.4362Z" fill="white"/>
<path d="M7.89649 9.46538C7.89139 9.67744 7.82139 9.88296 7.69559 10.0547C7.56979 10.2264 7.39419 10.3562 7.19219 10.4269C6.99009 10.4976 6.77109 10.5057 6.56419 10.4504C6.35739 10.395 6.17238 10.2786 6.03388 10.1168L6.02848 10.1153L6.02309 10.1168L0.0873887 0.863617C0.0334887 0.779484 0.00338394 0.682592 0.000283938 0.583039C-0.00291606 0.483486 0.0209834 0.384918 0.0693834 0.297611C0.117883 0.210303 0.189083 0.137453 0.275583 0.0866536C0.362183 0.0358548 0.460886 0.00896586 0.561586 0.00879256H1.36389C1.57779 0.00829209 1.78829 0.0615814 1.97559 0.163657C2.16289 0.265732 2.32098 0.413248 2.43498 0.592357L7.78288 8.97997C7.86258 9.1293 7.90179 9.29657 7.89649 9.46538Z" fill="white"/>
<path d="M9.78619 19.5855C9.81699 19.725 9.81929 19.8691 9.79299 20.0095C9.76669 20.1499 9.71228 20.2836 9.63298 20.4028L7.07978 24.4111C6.96598 24.5899 6.80829 24.7373 6.62129 24.8393C6.43429 24.9414 6.22418 24.9948 6.01058 24.9946H5.20638C5.10578 24.9948 5.00708 24.9683 4.92038 24.9177C4.83378 24.8671 4.76248 24.7944 4.71398 24.7072C4.66548 24.6199 4.64158 24.5214 4.64478 24.4219C4.64798 24.3224 4.67819 24.2256 4.73219 24.1416C5.76179 22.5354 7.88399 19.2304 7.90199 19.2C8.02159 19.0378 8.18588 18.913 8.37518 18.8407C8.56448 18.7683 8.77078 18.7515 8.96958 18.7922C9.16828 18.8328 9.35098 18.9292 9.49578 19.0699C9.64058 19.2106 9.74149 19.3896 9.78619 19.5855Z" fill="white"/>
<path d="M17.0039 1.18259e-06C17.1045 -0.0002043 17.2033 0.0263717 17.29 0.0769473C17.3766 0.127523 17.4479 0.200234 17.4964 0.287461C17.5449 0.374687 17.5688 0.473218 17.5656 0.572725C17.5624 0.672232 17.5322 0.769053 17.4781 0.853039C16.4486 2.45918 14.3264 5.76425 14.3083 5.79459C14.2076 5.93094 14.0748 6.04101 13.9216 6.11531C13.7683 6.18961 13.599 6.22592 13.4284 6.22111C13.1779 6.20975 12.9391 6.11259 12.753 5.94625C12.5668 5.7799 12.4448 5.55471 12.4079 5.30918C12.3757 5.0588 12.4358 4.80531 12.5774 4.59534L15.1305 0.590703C15.2443 0.41185 15.4021 0.264495 15.5891 0.162433C15.7761 0.0603715 15.9862 0.00694026 16.1998 0.00713838L17.0039 1.18259e-06Z" fill="white"/>
<path d="M11.9214 9.51191L2.35608 24.4151C2.24208 24.593 2.08437 24.7395 1.89777 24.8409C1.71117 24.9423 1.50157 24.9954 1.28867 24.9951H0.583677C0.483177 24.995 0.384571 24.9683 0.297971 24.9177C0.211471 24.8672 0.140173 24.7946 0.0915733 24.7075C0.0429733 24.6204 0.0188728 24.522 0.0216728 24.4226C0.0244728 24.3232 0.0541713 24.2263 0.107671 24.1421L9.64237 9.19247C9.69887 9.10345 9.72877 9.00046 9.72877 8.89533C9.72877 8.79021 9.69887 8.68721 9.64237 8.5982L4.70367 0.853039C4.65027 0.768809 4.62057 0.671938 4.61767 0.572499C4.61487 0.47306 4.63897 0.374685 4.68757 0.287605C4.73617 0.200525 4.80747 0.127918 4.89397 0.0773393C4.98057 0.0267604 5.07918 5.66071e-05 5.17978 1.07945e-06H5.88477C6.09767 -0.000275901 6.30717 0.0527549 6.49377 0.154163C6.68037 0.255571 6.83808 0.40206 6.95218 0.579996L11.9214 8.31801C12.0362 8.49641 12.0971 8.7035 12.0971 8.91496C12.0971 9.12643 12.0362 9.33351 11.9214 9.51191Z" fill="white"/>
<path d="M21.5986 24.9954H20.7962C20.5827 24.9956 20.3725 24.9422 20.1855 24.8401C19.9985 24.738 19.8408 24.5907 19.727 24.4118L14.3773 16.0242C14.3023 15.8802 14.2634 15.7204 14.2637 15.5584C14.2638 15.3442 14.3304 15.1351 14.4544 14.9594C14.5784 14.7837 14.7538 14.6499 14.957 14.576C15.1602 14.5021 15.3814 14.4916 15.5908 14.5461C15.8002 14.6005 15.9877 14.7171 16.128 14.8803L22.0782 24.1459C22.1315 24.2302 22.161 24.3272 22.1635 24.4266C22.166 24.526 22.1414 24.6243 22.0924 24.7111C22.0434 24.798 21.9717 24.8702 21.8848 24.9202C21.7979 24.9702 21.6991 24.9962 21.5986 24.9954Z" fill="white"/>
</svg>
